<svg width="40" height="36" viewBox="0 0 40 36" fill="none" xmlns="http://www.w3.org/2000/svg">
<path d="M38.0833 14.4V12.6V10.8H36.1667V9V7.2H34.25V5.4V3.6H32.3333V1.8H30.4167V0H28.5H26.6667H24.75H22.8333H20.9167H19H17.0833H15.1667H13.3333H11.4167H9.5V1.8H7.58333V3.6H5.75V5.4V7.2H3.83333V9V10.8H1.91667V12.6V14.4H0V16.2V18V19.8V21.6H1.91667V23.4V25.2H3.83333V27V28.8H5.75V30.6H7.66667V32.4V34.2H9.58333V36H11.5H13.3333H15.25H17.1667H19.0833H21H22.9167H24.8333H26.6667H28.5833H30.5V34.2H32.4167V32.4V30.6H34.3333V28.8H36.25V27V25.2H38.1667V23.4V21.6H40V19.8V18V16.2V14.4H38.0833ZM34.25 21.6V23.4V25.2H32.3333V27V28.8H30.4167V30.6H28.5V32.4H26.6667H24.75H22.8333H20.9167H19H17.0833H15.1667H13.3333H11.4167V30.6H9.5V28.8H7.58333V27V25.2H5.75V23.4V21.6H3.83333V19.8V18V16.2V14.4H5.75V12.6V10.8H7.66667V9V7.2H9.58333V5.4H11.5V3.6H13.3333H15.25H17.1667H19.0833H21H22.9167H24.8333H26.6667H28.5833V5.4H30.5V7.2H32.4167V9V10.8H34.3333V12.6V14.4H36.25V16.2V18V19.8V21.6H34.25Z" fill="#4CD30C"/>
</svg>
